PathFileType	4	(X/Y/Z)	C:/Users/opensim2020/Desktop/walking_exp_matlab/subject06_walking12_static.trc																																																																																																																																														
DataRate	CameraRate	NumFrames	NumMarkers	Units	OrigDataRate	OrigDataStartFrame	OrigNumFrames																																																																																																																																										
100	100	4	48	mm	100	227	363																																																																																																																																										
Frame#	Time	LFHD			RFHD			LBHD			RBHD			C7			T10			CLAV			STRN			RBAK			LSHO			LUPA			LELB			LFRM			LWRA			LWRB			LFIN			RSHO			RUPA			RELB			RFRM			RWRA			RWRB			RFIN			LASI			RASI			LPSI			RPSI			LTHI			LKNE			LTIB			LANK			LHEE			LTOE			RTHI			RKNE			RTIB			RANK			RHEE			RTOE			*39			*40			*41			*42			*43			*44			*45			*46			*47		
		X1	Y1	Z1	X2	Y2	Z2	X3	Y3	Z3	X4	Y4	Z4	X5	Y5	Z5	X6	Y6	Z6	X7	Y7	Z7	X8	Y8	Z8	X9	Y9	Z9	X10	Y10	Z10	X11	Y11	Z11	X12	Y12	Z12	X13	Y13	Z13	X14	Y14	Z14	X15	Y15	Z15	X16	Y16	Z16	X17	Y17	Z17	X18	Y18	Z18	X19	Y19	Z19	X20	Y20	Z20	X21	Y21	Z21	X22	Y22	Z22	X23	Y23	Z23	X24	Y24	Z24	X25	Y25	Z25	X26	Y26	Z26	X27	Y27	Z27	X28	Y28	Z28	X29	Y29	Z29	X30	Y30	Z30	X31	Y31	Z31	X32	Y32	Z32	X33	Y33	Z33	X34	Y34	Z34	X35	Y35	Z35	X36	Y36	Z36	X37	Y37	Z37	X38	Y38	Z38	X39	Y39	Z39	X40	Y40	Z40	X41	Y41	Z41	X42	Y42	Z42	X43	Y43	Z43	X44	Y44	Z44	X45	Y45	Z45	X46	Y46	Z46	X47	Y47	Z47	X48	Y48	Z48
																																																																																																																																																	
227	2.26	396.99402	1678.39697	656.81964	412.6283	1665.42004	525.95288	528.28119	1619.69141	673.20697	541.78851	1612.8291	544.42365	530.80011	1460.24988	613.32379	557.96362	1133.12	599.65192	417.00211	1389.44275	604.42816	371.71173	1216.47754	607.54236	603.33514	1290.14465	530.99103	465.23529	1416.84131	769.61902	445.82571	1216.48889	844.9408	433.2923	1105.77283	862.0882	378.34421	967.45544	892.44916	292.55225	868.18768	857.13971	350.47775	851.34424	894.68353	290.27304	783.16406	900.07684	474.18033	1420.09229	448.54056	478.30606	1226.09778	349.03607	441.39621	1113.73254	318.88406	411.81607	1001.87811	281.48547	333.33054	867.56836	280.85471	391.60873	868.81274	247.86546	346.73254	799.94727	228.08914	380.66144	974.21204	700.20947	384.35513	981.47443	481.22418	536.81091	1005.14099	675.75421	533.35309	1011.26624	509.67236	482.05801	666.70398	779.3797	500.96036	503.48459	769.30878	545.12872	252.65717	794.4585	543.27362	74.93379	771.49261	583.00732	56.21808	729.46027	395.28036	39.1685	770.47455	478.92239	650.78711	412.41617	493.76819	525.716	428.1745	562.25085	269.58105	406.82739	575.03412	78.59277	436.2619	612.91144	51.224	479.40277	418.4874	35.901	431.80103	504.81848	1713.22681	609.38293	NaN	NaN	NaN	NaN	NaN	NaN	NaN	NaN	NaN	NaN	NaN	NaN	NaN	NaN	NaN	NaN	NaN	NaN	NaN	NaN	NaN	NaN	NaN	NaN
228	2.27	396.87704	1678.39661	656.74542	412.53101	1665.4259	525.89636	528.16034	1619.70654	673.14258	541.75116	1612.85718	544.40552	530.75592	1460.24622	613.34674	558.03693	1133.08777	599.67035	416.96359	1389.43665	604.43799	371.69513	1216.48022	607.57312	603.32947	1290.04932	530.9032	465.17023	1416.8811	769.61768	445.74234	1216.51831	844.92407	433.24478	1105.8103	862.06006	378.21924	967.45673	892.26904	292.53281	868.18396	857.02985	350.44443	851.35321	894.59052	290.24414	783.13147	899.99023	474.11023	1420.08276	448.54752	478.21365	1226.11523	349.04776	441.3399	1113.7345	318.85715	411.83029	1001.7912	281.62854	333.36972	867.52325	280.85547	391.62564	868.79492	247.81284	346.81393	799.93842	228.0959	380.69342	974.24402	700.2326	384.35132	981.51575	481.17667	536.82544	1005.16266	675.77374	533.41064	1011.30347	509.6658	482.03854	666.7019	779.35272	500.9949	503.50424	769.33502	545.12726	252.65529	794.40283	543.27466	74.9548	771.49188	582.90991	56.27365	729.58405	395.28851	39.2107	770.45276	478.93826	650.77655	412.43561	493.79254	525.77545	428.09534	562.25934	269.60922	406.8421	575.04993	78.60928	436.23328	612.90771	51.22675	479.42474	418.49512	35.86778	431.80942	504.81976	1713.22412	609.42065	NaN	NaN	NaN	NaN	NaN	NaN	NaN	NaN	NaN	NaN	NaN	NaN	NaN	NaN	NaN	NaN	NaN	NaN	NaN	NaN	NaN	NaN	NaN	NaN
229	2.28	396.76236	1678.40381	656.69611	412.41214	1665.3667	525.82288	528.09052	1619.75146	673.12463	541.63062	1612.87512	544.33289	530.67578	1460.29443	613.27313	558.0495	1133.12598	599.66241	416.90588	1389.4563	604.39221	371.68744	1216.5127	607.57574	603.30853	1290.12646	530.89502	465.09671	1416.92432	769.61078	445.67972	1216.57434	844.92072	433.19205	1105.85022	862.04541	378.189	967.53357	892.2735	292.49948	868.24805	856.99939	350.39026	851.36377	894.4751	290.19339	783.12543	899.83148	474.01852	1420.06567	448.52936	478.15915	1226.1272	348.9848	441.29941	1113.73462	318.85184	411.76871	1001.84363	281.43411	333.40714	867.48053	280.81723	391.64615	868.76239	247.77446	346.86035	799.87506	228.05444	380.68716	974.27118	700.24249	384.45032	981.52081	481.13898	536.88141	1005.1673	675.78461	533.46313	1011.28815	509.67963	482.05701	666.70575	779.34155	501.00592	503.50015	769.29376	545.13617	252.66298	794.40088	543.28247	74.97113	771.4873	582.99268	56.20688	729.44635	395.30954	39.19466	770.45239	478.98285	650.7959	412.44174	493.83466	525.75739	428.20712	562.25427	269.62357	406.85358	575.00952	78.57757	436.27444	612.91833	51.23814	479.42868	418.50043	35.89262	431.76526	504.5762	1713.23584	609.26465	NaN	NaN	NaN	NaN	NaN	NaN	NaN	NaN	NaN	NaN	NaN	NaN	NaN	NaN	NaN	NaN	NaN	NaN	NaN	NaN	NaN	NaN	NaN	NaN
230	2.29	396.61969	1678.40112	656.65601	412.26517	1665.32129	525.80341	527.94348	1619.79224	673.04858	541.52283	1612.9126	544.2998	530.60547	1460.31885	613.26428	558.11224	1133.14429	599.63782	416.84329	1389.51208	604.47424	371.66098	1216.51721	607.62335	603.27887	1290.17932	530.90387	465.05505	1416.98547	769.61658	445.6409	1216.64966	844.9306	433.15909	1105.91089	862.06659	378.06512	967.53741	892.08228	292.46652	868.26166	856.89374	350.3598	851.42236	894.43329	290.11456	783.12341	899.65057	473.93777	1420.06689	448.53156	478.07718	1226.13855	348.98102	441.22986	1113.73914	318.82059	411.78528	1001.7807	281.56329	333.46405	867.44873	280.82138	391.69382	868.78076	247.75912	346.92905	799.83862	228.02049	380.68573	974.24994	700.21704	384.46674	981.50677	481.07901	536.87622	1005.13196	675.76508	533.50995	1011.28418	509.66852	482.07242	666.70959	779.3454	501.04169	503.48724	769.28363	545.15033	252.6839	794.40118	543.25739	74.96291	771.48993	582.91309	56.27286	729.57874	395.39398	39.1808	770.53613	479.06525	650.77582	412.42719	493.8678	525.75775	428.10831	562.28284	269.61035	406.85641	575.09174	78.63157	436.25107	612.92657	51.23783	479.45703	418.50122	35.83777	431.79919	504.41513	1713.27661	609.17725	NaN	NaN	NaN	NaN	NaN	NaN	NaN	NaN	NaN	NaN	NaN	NaN	NaN	NaN	NaN	NaN	NaN	NaN	NaN	NaN	NaN	NaN	NaN	NaN
